<?xml version="1.0" encoding="utf-8"?>
<svg xmlns="http://www.w3.org/2000/svg" viewBox="0 0 64 64" width="512" height="512">
  <path d="M24 2.8886719C12.365714 2.8886719 2.8886719 12.365723 2.8886719 24C2.8886719 35.634277 12.365714 45.111328 24 45.111328C29.036552 45.111328 33.664698 43.331333 37.298828 40.373047L52.130859 58.953125C52.130859 58.953125 55.379484 59.435984 57.396484 57.333984C59.427484 55.215984 58.951172 52.134766 58.951172 52.134766L40.373047 37.298828C43.331332 33.664697 45.111328 29.036548 45.111328 24C45.111328 12.365723 35.634286 2.8886719 24 2.8886719 z M 24 7.1113281C33.352549 7.1113281 40.888672 14.647457 40.888672 24C40.888672 33.352543 33.352549 40.888672 24 40.888672C14.647451 40.888672 7.1113281 33.352543 7.1113281 24C7.1113281 14.647457 14.647451 7.1113281 24 7.1113281 z" fill="#5B5B5B" />
</svg>