<?xml version="1.0" encoding="utf-8"?>
<svg xmlns="http://www.w3.org/2000/svg" viewBox="0 0 64 64" width="512" height="512">
  <path d="M48,8H16c-4.418,0-8,3.582-8,8v32c0,4.418,3.582,8,8,8h32c4.418,0,8-3.582,8-8V16C56,11.582,52.418,8,48,8z M45.825,26.226 c0.012,0.271,0.018,0.543,0.018,0.816c0,8.34-6.395,17.958-18.094,17.958c-3.592,0-6.934-1.045-9.749-2.835 c0.498,0.059,1.005,0.089,1.518,0.089c2.981,0,5.723-1.009,7.899-2.702c-2.783-0.051-5.132-1.877-5.941-4.384 c0.387,0.072,0.787,0.112,1.196,0.112c0.581,0,1.143-0.077,1.676-0.221c-2.91-0.579-5.102-3.13-5.102-6.188 c0-0.027,0-0.052,0-0.079c0.857,0.472,1.839,0.756,2.88,0.789c-1.706-1.131-2.828-3.063-2.828-5.252 c0-1.158,0.314-2.242,0.86-3.175c3.138,3.819,7.824,6.333,13.109,6.595c-0.107-0.46-0.165-0.943-0.165-1.438 c0-3.485,2.847-6.311,6.36-6.311c1.829,0,3.481,0.767,4.641,1.994c1.45-0.284,2.811-0.809,4.039-1.532 c-0.474,1.474-1.482,2.711-2.796,3.492c1.286-0.153,2.512-0.491,3.653-0.994C48.148,24.224,47.069,25.335,45.825,26.226z" fill="#5B5B5B" />
</svg>