<?xml version="1.0" encoding="utf-8"?>
<!-- Generator: Adobe Illustrator 26.2.1, SVG Export Plug-In . SVG Version: 6.00 Build 0)  -->
<svg version="1.2" baseProfile="tiny" id="Layer_1" xmlns="http://www.w3.org/2000/svg" xmlns:xlink="http://www.w3.org/1999/xlink"
	 x="0px" y="0px" viewBox="0 0 389.11 288" overflow="visible" xml:space="preserve">
<path fill="#010101" d="M274.13,220.82c-1.5-1.6-3.3-3-5.2-3.9c-6.2-3-10.3-7.7-12.2-14.1c-3.41-12.02-7.37-23.82-9.3-36.2
	c-0.86-5.02-0.85-9.96,0.2-14.9c0.3-1.4,0.7-2.7,1.1-4c1.82-4.91,4.53-9.14,8.4-12.9c1.1-1,2-2.1,3-3.3c0.7-0.9,1.4-1.7,2-2.6
	c0.4-0.5,0.7-1.1,1.1-1.7c2.28-3.82,4.09-8.23,5.1-12.7c-22.78-13.57-39.84-33.31-57.1-52.9c-15.13,6.92-30.55,8.26-46.5,8.1
	c-3.91,0.01-8.21-0.04-12.1,0.1c-1.3,0-2.7,0.1-4,0.1c-13.35,0.62-26.58,2.16-39.6,5.8c-2.6,0.7-5.2,1.5-7.8,2.4
	c-9.03,3.06-17.45,2.65-25.4-1.1c-5.55-2.46-10.59-7.69-14.9-12.1c-5.47-5.36-10.51-11.33-16.1-16.5c-2.37-1.98-4.92-4.24-8-4.9
	c-1-0.2-2.2-0.4-3.4-0.3h-0.1c-2,0.1-3.9,0.6-5.4,1.4c-0.8,0.4-1.3,1-1.7,1.7c-1.64,2.92-0.12,6.43,1.1,9.3c1,2.2,2.2,4.3,3.6,6.2
	c8.5,11.2,17.3,22.3,26,33.3c-3.91,7.47-8.21,14.55-11.7,22.2c-7,15.15-13.05,30.65-20,45.8c-0.8,1.9-1.7,3.7-2.8,5.4
	c-1.43,2.34-3.1,4.39-5.2,6.2c-0.5,0.5-1.1,0.9-1.7,1.3c-2.1,1.5-4.1,4.6-4.4,7.1c-1.2,12.1-2.2,24.3-2.5,36.5
	c-0.08,3.22,0.86,6.29,3.2,8.6c1.36,1.56,3.03,2.46,5.1,3.2c6.86,2.3,13.64,0.25,17.8-5.3c-0.5-1.1-0.9-2.3-1.5-3.4
	c-0.8-1.4-1.6-2.8-2.6-4c-1.7-2.3-2.9-4.3-3.6-6.2c-3.49-9.2,7.94-18.68,15.4-23.2c6.79-4.49,13.66-8.9,20-14
	c4.2-3.4,8.2-7,11.9-11.1c0.7-0.8,1.9-1.3,2.9-2c0.2,0.8,0.5,1.4,0.6,1.9v0.4c-4.63,14.77-1.34,28.2,10.4,39.5
	c5.2,5,9.9,10.5,14.8,15.8c1.6,1.8,3.3,3.5,4.9,5.3c1.7,1.8,4,3.8,6.2,4c0.7,0.1,1.4,0.1,2.1,0.2c4.84,0.25,9.83-0.03,14.6,0
	c1.35-3.92,2.36-5.48,1.9-8.4c-0.2-0.6-0.5-1.1-1-1.6c-0.6-0.7-1.5-1.4-2.7-2.2c-2.03-1.46-4.53-2.51-6.6-3.9
	c-10.9-7.2-18.6-23.3-15.9-33.9c0.9-3.5,2.2-6.9,3.8-10.1c2.58-5.37,6.1-10.32,10.1-14.8c0.5-0.6,1.1-1.2,1.6-1.7
	c1.1-1,2.3-1.8,3.5-2.4c0.92-0.39,1.76-0.81,2.8-1c2.47-0.58,4.87-0.27,7.5,0.2c8.38,2.02,17.02,3.41,25.4,4.9
	c0.5,0.1,1.1,0.2,1.7,0.3c1.4,0.2,2.8,0.2,4.1,0c0.3,0,0.6-0.1,0.9-0.2c1-0.3,2-0.8,3-1.5c1.15-0.86,2.41-1.71,3.7-2.5
	c-0.5,1.4-0.9,2.6-1.2,3.6c-0.1,0.4-0.3,0.8-0.4,1.2c-0.1,0.2-0.1,0.4-0.2,0.6c-0.2,0.6-0.4,1.2-0.7,1.8c0,0.1-0.1,0.2-0.1,0.3
	c-4.6,11.35-7.9,23.3-10.3,35.3c-0.86,4.06-1.4,7.96-2,12.1c-0.9,6.6,0.1,12,2.9,16c0.64,1.05,1.94,2.22,2.8,3.1
	c1.3,1.1,2.8,2.1,4.5,2.9c0.7,0.3,1.4,0.6,2.1,0.8c4.49,1.68,12.68,1.27,17.7,1.3c2.8-5.34,2.33-9.14-1.3-13
	c-2.5-2.79-6.08-5.15-8-8.3c6.08-18.65,18.34-36.42,29-53.3c6.85,14.51,13.46,28.71,20.4,43c1.1,2.4,2.3,4.8,3.5,7.1
	c3.5,7.1,7.1,14.2,10.9,21.2c1.12,1.87,2.63,3.84,4.3,5.2c0.86,0.8,2.01,1.2,3.1,1.5c6.9,1,14.1,0.8,21.1,0.2
	c5.1-0.4,7.1-4.9,4.2-9.2C275.93,222.82,275.13,221.82,274.13,220.82L274.13,220.82z M377.13,150.57c-1.9-1.8-3.9-3.3-5.9-4.9
	c-14.04-10.41-26.33-18.28-25.8-37.8c0.2-6.4,0-12.8,0.1-19.2c0.1-7.6-0.6-15.2,2.2-22.8c2-5.5,0.2-8.9-4.9-12.1
	c-4.3-2.7-8.9-5.1-13.4-7.4c-5.9-3-10.8-7-13.7-13c-2.9-6.1-7.6-10.7-13.5-13.1c-8.2-3.4-16.8-6.5-25.5-8.2
	c-9.6-1.9-18.5,1.5-25.2,8.9c-11.5,12.8-22.7,25.8-34.4,39.1c15.9,18.3,32.2,36.5,53.8,49.2c5.7-8,10.8-15.3,16.1-22.7
	c16.3-0.7,32.8,1.9,48.8-5.3v15.3c-4.3-0.6-7.9-1.3-11.6-1.8c-4.2-0.5-8.8-1.1-11.4,3c-6.7,10.8-13,21.9-19.8,33.4
	c2.4,2.1,3.2,3.2,4.2,3.7c18.5,8.7,37,17.6,55.7,26c5.2,2.3,11.1,3.2,16.8,4.1c3.9,0.7,7.9-0.5,9.9-4.3
	C381.83,156.97,380.23,153.47,377.13,150.57L377.13,150.57z M282.11,70.87c-15.6,3.8-24.1-13.7-24.4-14.2
	c0.4,0.5,9.8,10.8,21.1,10.8c11.4,0-3.1-33.2-3.4-34C276.01,34.27,297.71,66.97,282.11,70.87L282.11,70.87z M342.83,99.86
	c0,0-1.44-1.85-4-2.26V80.47c0,0,3.28-2.36,4-3.59C342.83,76.88,342.83,99.86,342.83,99.86z"/>
<g>
	<path d="M21.48,277.37c-1.55,0-3.03-0.11-4.41-0.34c-1.39-0.23-2.59-0.5-3.6-0.82c-1.01-0.32-1.73-0.61-2.15-0.87l1.06-5.67
		c0.56,0.33,1.29,0.67,2.21,1s1.92,0.6,3.02,0.82c1.1,0.22,2.21,0.33,3.33,0.33c1.8,0,3.13-0.28,4.01-0.85s1.31-1.47,1.31-2.72
		c0-0.88-0.24-1.63-0.72-2.23s-1.24-1.19-2.27-1.77c-1.03-0.58-2.37-1.27-4.02-2.06c-1.4-0.69-2.72-1.5-3.96-2.45
		c-1.24-0.95-2.24-2.07-3.01-3.39c-0.77-1.31-1.15-2.84-1.15-4.6c0-1.59,0.31-2.96,0.92-4.11c0.61-1.15,1.45-2.1,2.52-2.84
		c1.07-0.74,2.31-1.28,3.72-1.64c1.41-0.35,2.92-0.53,4.54-0.53c2.32,0,4.23,0.22,5.73,0.66c1.49,0.44,2.54,0.85,3.12,1.24
		l-1.2,5.45c-0.71-0.52-1.69-0.99-2.94-1.41c-1.25-0.42-2.69-0.63-4.3-0.63c-1.07,0-2,0.13-2.79,0.39
		c-0.79,0.26-1.41,0.64-1.84,1.13c-0.44,0.5-0.66,1.1-0.66,1.82c0,0.85,0.21,1.58,0.62,2.19s1.08,1.18,1.98,1.74
		s2.08,1.19,3.53,1.91c1.31,0.63,2.53,1.28,3.64,1.96s2.1,1.42,2.94,2.23s1.5,1.73,1.97,2.77c0.47,1.04,0.7,2.23,0.7,3.57
		c0,2.04-0.48,3.79-1.43,5.25c-0.95,1.46-2.31,2.57-4.09,3.33C26.03,276.99,23.92,277.37,21.48,277.37z"/>
	<path d="M52.42,277.37c-3.23,0.06-6.01-0.64-8.33-2.09c-2.32-1.46-4.09-3.52-5.3-6.18c-1.21-2.66-1.78-5.76-1.72-9.3
		c0.08-3.92,0.81-7.14,2.22-9.65c1.4-2.51,3.3-4.37,5.68-5.59c2.38-1.22,5.08-1.86,8.1-1.92c3.09-0.06,5.77,0.61,8.02,2.03
		c2.26,1.41,3.98,3.42,5.18,6.04s1.76,5.7,1.69,9.26c-0.08,3.92-0.78,7.16-2.13,9.71c-1.34,2.56-3.17,4.46-5.48,5.72
		S55.4,277.3,52.42,277.37z M52.55,272.1c2.52,0,4.52-1,6-3c1.48-2,2.22-5.12,2.22-9.38c0-2.23-0.29-4.22-0.87-6
		c-0.58-1.77-1.45-3.17-2.61-4.2c-1.16-1.03-2.62-1.54-4.37-1.54c-1.57,0-3.01,0.4-4.31,1.19c-1.31,0.79-2.35,2.08-3.13,3.84
		s-1.18,4.12-1.18,7.05c0,2.24,0.31,4.27,0.93,6.09c0.62,1.82,1.54,3.26,2.76,4.34C49.2,271.57,50.73,272.1,52.55,272.1z"/>
	<path d="M73.76,277v-34h7.02v28.26h12.15V277H73.76z"/>
	<path d="M98.02,277v-34h20.53v5.4h-13.47v8.54h10.21v5.29h-10.21v9.27h14.89V277H98.02z"/>
	<path d="M140.6,277h-7.08v-34c0.3,0,0.6,0,0.89,0s0.59,0,0.88,0c0.29,0,0.59,0,0.89,0c1.15,0,2.48-0.06,4.01-0.18
		s3.35-0.18,5.48-0.18c1.57,0,3.08,0.17,4.53,0.51c1.45,0.34,2.74,0.91,3.88,1.69c1.14,0.79,2.04,1.84,2.7,3.17
		c0.66,1.33,1,2.98,1,4.94c0,2.21-0.36,4.05-1.09,5.5c-0.72,1.46-1.74,2.59-3.04,3.41c-1.31,0.82-2.83,1.36-4.58,1.64
		c-0.6,0.09-1.21,0.18-1.83,0.26c-0.62,0.08-1.43,0.15-2.44,0.21s-2.41,0.08-4.19,0.08V277z M140.6,259.01
		c0.32,0.05,0.76,0.08,1.34,0.11c0.57,0.03,1.16,0.05,1.75,0.05s1.08,0,1.44,0c1.92,0,3.35-0.54,4.31-1.64
		c0.96-1.09,1.44-2.56,1.44-4.41c0-1.04-0.18-1.96-0.53-2.78c-0.35-0.82-0.98-1.46-1.87-1.92c-0.89-0.46-2.14-0.7-3.73-0.7
		c-0.71,0-1.43,0.03-2.15,0.1c-0.72,0.07-1.39,0.17-1.99,0.31V259.01z M152.23,277c-0.2-0.26-0.37-0.55-0.51-0.88
		c-0.14-0.33-0.38-0.86-0.71-1.59c-0.47-1.02-0.9-2.13-1.3-3.32c-0.4-1.19-0.82-2.33-1.26-3.41c-0.44-1.08-0.94-1.98-1.52-2.7
		c-0.57-0.72-1.27-1.11-2.08-1.17l1.99-1.58l4.41-0.3c0.86,0.38,1.62,1.03,2.27,1.96s1.26,1.99,1.81,3.19
		c0.55,1.21,1.09,2.45,1.63,3.73c0.54,1.28,1.11,2.47,1.73,3.57c0.23,0.43,0.46,0.85,0.69,1.26c0.23,0.41,0.46,0.82,0.69,1.24
		H152.23z"/>
	<path d="M164.93,277v-34h20.53v5.4h-13.47v8.54h10.21v5.29h-10.21v9.27h14.89V277H164.93z"/>
	<path d="M199.01,277v-28.51h-9.57V243h26.28v5.49h-9.57V277H199.01z"/>
	<path d="M227.49,277h-7.08v-34c0.3,0,0.6,0,0.89,0s0.59,0,0.88,0c0.29,0,0.59,0,0.89,0c1.15,0,2.48-0.06,4.01-0.18
		s3.35-0.18,5.48-0.18c1.57,0,3.08,0.17,4.53,0.51c1.45,0.34,2.74,0.91,3.88,1.69c1.14,0.79,2.04,1.84,2.7,3.17
		c0.66,1.33,1,2.98,1,4.94c0,2.21-0.36,4.05-1.09,5.5c-0.72,1.46-1.74,2.59-3.04,3.41c-1.31,0.82-2.83,1.36-4.58,1.64
		c-0.6,0.09-1.21,0.18-1.83,0.26c-0.62,0.08-1.43,0.15-2.44,0.21s-2.41,0.08-4.19,0.08V277z M227.49,259.01
		c0.32,0.05,0.76,0.08,1.34,0.11c0.57,0.03,1.16,0.05,1.75,0.05s1.08,0,1.44,0c1.92,0,3.35-0.54,4.31-1.64
		c0.96-1.09,1.44-2.56,1.44-4.41c0-1.04-0.18-1.96-0.53-2.78c-0.35-0.82-0.98-1.46-1.87-1.92c-0.89-0.46-2.14-0.7-3.73-0.7
		c-0.71,0-1.43,0.03-2.15,0.1c-0.72,0.07-1.39,0.17-1.99,0.31V259.01z M239.12,277c-0.2-0.26-0.37-0.55-0.51-0.88
		c-0.14-0.33-0.38-0.86-0.71-1.59c-0.47-1.02-0.9-2.13-1.3-3.32c-0.4-1.19-0.82-2.33-1.26-3.41c-0.44-1.08-0.94-1.98-1.52-2.7
		c-0.57-0.72-1.27-1.11-2.08-1.17l1.99-1.58l4.41-0.3c0.86,0.38,1.62,1.03,2.27,1.96s1.26,1.99,1.81,3.19
		c0.55,1.21,1.09,2.45,1.63,3.73c0.54,1.28,1.11,2.47,1.73,3.57c0.23,0.43,0.46,0.85,0.69,1.26c0.23,0.41,0.46,0.82,0.69,1.24
		H239.12z"/>
	<path d="M252.31,277v-34h7.15v34H252.31z"/>
	<path d="M267.55,277v-34h20.53v5.4h-13.47v8.54h10.21v5.29h-10.21v9.27h14.89V277H267.55z"/>
	<path d="M303.53,277.16L291.15,243h7.54l6.36,19.29l1.63,6.16l1.63-6.16l6.02-19.29h7.49l-12.2,34.16H303.53z"/>
	<path d="M325.62,277v-34h20.53v5.4h-13.47v8.54h10.21v5.29h-10.21v9.27h14.89V277H325.62z"/>
	<path d="M360.09,277h-7.08v-34c0.3,0,0.6,0,0.89,0s0.59,0,0.88,0c0.29,0,0.59,0,0.89,0c1.15,0,2.48-0.06,4.01-0.18
		s3.35-0.18,5.48-0.18c1.57,0,3.08,0.17,4.53,0.51c1.45,0.34,2.74,0.91,3.88,1.69c1.14,0.79,2.04,1.84,2.7,3.17
		c0.66,1.33,1,2.98,1,4.94c0,2.21-0.36,4.05-1.09,5.5c-0.72,1.46-1.74,2.59-3.04,3.41c-1.31,0.82-2.83,1.36-4.58,1.64
		c-0.6,0.09-1.21,0.18-1.83,0.26c-0.62,0.08-1.43,0.15-2.44,0.21s-2.41,0.08-4.19,0.08V277z M360.09,259.01
		c0.32,0.05,0.76,0.08,1.34,0.11c0.57,0.03,1.16,0.05,1.75,0.05s1.08,0,1.44,0c1.92,0,3.35-0.54,4.31-1.64
		c0.96-1.09,1.44-2.56,1.44-4.41c0-1.04-0.18-1.96-0.53-2.78c-0.35-0.82-0.98-1.46-1.87-1.92c-0.89-0.46-2.14-0.7-3.73-0.7
		c-0.71,0-1.43,0.03-2.15,0.1c-0.72,0.07-1.39,0.17-1.99,0.31V259.01z M371.73,277c-0.2-0.26-0.37-0.55-0.51-0.88
		c-0.14-0.33-0.38-0.86-0.71-1.59c-0.47-1.02-0.9-2.13-1.3-3.32c-0.4-1.19-0.82-2.33-1.26-3.41c-0.44-1.08-0.94-1.98-1.52-2.7
		c-0.57-0.72-1.27-1.11-2.08-1.17l1.99-1.58l4.41-0.3c0.86,0.38,1.62,1.03,2.27,1.96s1.26,1.99,1.81,3.19
		c0.55,1.21,1.09,2.45,1.63,3.73c0.54,1.28,1.11,2.47,1.73,3.57c0.23,0.43,0.46,0.85,0.69,1.26c0.23,0.41,0.46,0.82,0.69,1.24
		H371.73z"/>
</g>
</svg>
