<svg xmlns="http://www.w3.org/2000/svg" xml:space="preserve" class="logo" style="enable-background:new 0 0 374.4 222" viewBox="0 0 374.4 222"><path d="M265.8 209.2c-1.5-1.6-3.3-3-5.2-3.9-6.2-3-10.3-7.7-12.2-14.1-1.7-6-3.6-12-5.2-18-1.2-4.5-2.4-9-3.3-13.6-.3-1.5-.6-3-.8-4.6-.4-2.2-.6-4.4-.6-6.5s.1-4.2.4-6.3c.1-.7.2-1.4.4-2.1.3-1.4.7-2.7 1.1-4 .5-1.3 1-2.6 1.7-3.9.5-.9 1-1.8 1.5-2.6 1.4-2.2 3.1-4.4 5.2-6.4 1.1-1 2-2.1 3-3.3.7-.9 1.4-1.7 2-2.6.4-.5.7-1.1 1.1-1.7 1.8-3 3.2-6.2 4.3-9.7.3-1 .6-2 .8-3-11.4-6.8-21.4-15.1-30.6-24.2-9.3-9.1-17.9-18.9-26.5-28.7-12.3 5.6-24.8 7.6-37.6 8-3 .1-5.9.1-8.9.1h-4c-2.7 0-5.4 0-8.1.1-1.3 0-2.7.1-4 .1-2.7.1-5.3.3-8 .5-10.6.8-21.2 2.4-31.6 5.3-2.6.7-5.2 1.5-7.8 2.4-7.4 2.5-14.5 2.7-21.1.6-1.5-.5-2.9-1.1-4.3-1.7-.7-.4-1.4-.7-2.1-1.1-2.8-1.6-5.5-3.7-8-6.2l-4.8-4.8c-1.6-1.6-3.1-3.2-4.7-4.8-3.8-3.9-7.4-8.1-11.4-11.7-1.5-1.3-3.1-2.6-4.8-3.6-1-.6-2.1-1.1-3.2-1.3-1-.2-2.2-.4-3.4-.3H25c-2 .1-3.9.6-5.4 1.4-.8.4-1.3 1-1.7 1.7-.5.8-.7 1.8-.7 2.8 0 1.4.3 2.9.9 4.3.3.7.6 1.5.9 2.2 1 2.2 2.2 4.3 3.6 6.2 8.5 11.2 17.3 22.3 26 33.3-1.5 2.8-3 5.6-4.5 8.3-1 1.8-2 3.7-3 5.5-1.5 2.8-2.9 5.5-4.2 8.4-3.5 7.6-6.8 15.2-10 22.9s-6.6 15.3-10 22.9c-.8 1.9-1.7 3.7-2.8 5.4-.5.9-1.2 1.8-1.8 2.6-1 1.3-2.1 2.5-3.4 3.6-.5.5-1.1.9-1.7 1.3-2.1 1.5-4.1 4.6-4.4 7.1C1.6 183.6.6 195.8.3 208c0 1 .1 2 .2 2.9s.5 1.8.9 2.7c.5 1.1 1.2 2.1 2.1 3 .4.5.9.9 1.4 1.3 1 .8 2.3 1.4 3.7 1.9 4.3 1.4 8.4 1.2 12-.5 1.1-.5 2.1-1.2 3.1-2s1.9-1.7 2.7-2.8c-.5-1.1-.9-2.3-1.5-3.4-.8-1.4-1.6-2.8-2.6-4-1.7-2.3-2.9-4.3-3.6-6.2-1.5-4.2-.5-8 3.2-12.8 2.7-3.5 6.2-6.5 9.9-8.9.8-.5 1.5-1 2.3-1.5 2.3-1.5 4.5-3 6.8-4.5s4.5-3 6.7-4.6c2.2-1.6 4.4-3.2 6.5-4.9 4.2-3.4 8.2-7 11.9-11.1.7-.8 1.9-1.3 2.9-2 .2.8.5 1.4.6 1.9v.4c-1.5 4.8-2.1 9.4-2 13.7.3 9.6 4.5 18.1 12.4 25.8 5.2 5 9.9 10.5 14.8 15.8 1.6 1.8 3.3 3.5 4.9 5.3 1.7 1.8 4 3.8 6.2 4 .7.1 1.4.1 2.1.2 1.4.1 2.8.1 4.2.1 3.5 0 7-.1 10.4-.1 1.1-2.9 1.8-4.9 2-6.4.1-.8 0-1.4-.1-2-.2-.6-.5-1.1-1-1.6-.6-.7-1.5-1.4-2.7-2.2-1-.7-2.2-1.4-3.3-2s-2.3-1.2-3.3-1.9c-10.9-7.2-18.6-23.3-15.9-33.9.9-3.5 2.2-6.9 3.8-10.1 1-2.1 2.2-4.2 3.5-6.2 1.9-3 4.2-5.9 6.6-8.6.5-.6 1.1-1.2 1.6-1.7 1.1-1 2.3-1.8 3.5-2.4.3-.1.6-.3.9-.4.6-.2 1.2-.5 1.9-.6.6-.1 1.3-.3 2-.3h1c1.4 0 2.9.2 4.5.5 2.1.5 4.2 1 6.3 1.4 6.4 1.3 12.8 2.4 19.1 3.5.5.1 1.1.2 1.7.3 1.4.2 2.8.2 4.1 0 .3 0 .6-.1.9-.2 1-.3 2-.8 3-1.5.5-.4 1.1-.8 1.7-1.2s1.3-.9 2-1.3c-.5 1.4-.9 2.6-1.2 3.6-.1.4-.3.8-.4 1.2-.1.2-.1.4-.2.6-.2.6-.4 1.2-.7 1.8 0 .1-.1.2-.1.3-.8 1.9-1.5 3.8-2.2 5.8-2.1 5.8-3.9 11.6-5.4 17.6-1 4-1.9 7.9-2.7 11.9-.4 2-.8 4-1.1 6-.3 2-.6 4-.9 6.1-.9 6.6.1 12 2.9 16 .4.6.8 1.1 1.3 1.6l1.5 1.5c1.3 1.1 2.8 2.1 4.5 2.9.7.3 1.4.6 2.1.8 2.6.8 5.6 1.3 8.9 1.3h8.8c1.7-3.2 2.1-5.8 1.6-8-.4-1.9-1.5-3.5-2.9-5-.7-.7-1.4-1.5-2.2-2.2-2.1-1.9-4.4-3.8-5.8-6.1 4.7-14.2 12.3-27 20.6-40.1l8.4-13.2 2.7 5.7c2.6 5.6 5.2 11.1 7.7 16.4 1.7 3.6 3.4 7.1 5 10.5s3.3 6.9 5 10.4c1.1 2.4 2.3 4.8 3.5 7.1 3.5 7.1 7.1 14.2 10.9 21.2.2.4.4.7.7 1.1s.5.7.8 1.1c.8 1.1 1.8 2.2 2.8 3 .3.3.7.5 1 .7s.7.4 1.1.5c.4.1.7.2 1 .3 6.9 1 14.1.8 21.1.2 5.1-.4 7.1-4.9 4.2-9.2-1-1.1-1.8-2.1-2.8-3.1zM368.4 138.9c-1.9-1.8-3.9-3.3-5.9-4.9-4.3-3.3-8.8-6.5-13-10-8.7-7.2-13.1-16.4-12.8-27.8.2-6.4 0-12.8.1-19.2.1-7.6-.6-15.2 2.2-22.8 2-5.5.2-8.9-4.9-12.1-4.3-2.7-8.9-5.1-13.4-7.4-5.9-3-10.8-7-13.7-13-2.9-6.1-7.6-10.7-13.5-13.1-8.2-3.4-16.8-6.5-25.5-8.2-9.6-1.9-18.5 1.5-25.2 8.9-11.5 12.8-22.7 25.8-34.4 39.1 15.9 18.3 32.2 36.5 53.8 49.2 5.7-8 10.8-15.3 16.1-22.7 16.3-.7 32.8 1.9 48.8-5.3v15.3c-4.3-.6-7.9-1.3-11.6-1.8-4.2-.5-8.8-1.1-11.4 3-6.7 10.8-13 21.9-19.8 33.4 2.4 2.1 3.2 3.2 4.2 3.7 18.5 8.7 37 17.6 55.7 26 5.2 2.3 11.1 3.2 16.8 4.1 3.9.7 7.9-.5 9.9-4.3 2.2-3.7.6-7.2-2.5-10.1zm-95-79.7C257.8 63 249.3 45.5 249 45c.4.5 9.8 10.8 21.1 10.8 11.4 0-3.1-33.2-3.4-34 .6.8 22.3 33.5 6.7 37.4zm60.2 28.7s-1.4-1.8-3.9-2.2V69s3.2-2.3 3.9-3.5v22.4z"/></svg>